<svg height="512pt" viewBox="0 0 512 512" width="512pt" xmlns="http://www.w3.org/2000/svg"><path d="m512 256c0 141.386719-114.613281 256-256 256s-256-114.613281-256-256 114.613281-256 256-256 256 114.613281 256 256zm0 0" fill="#a96a51"/><path d="m448.320312 220.230469c14.976563 66.820312-3.535156 139.636719-55.539062 191.640625-79.953125 79.953125-209.085938 80.75-290.019531 2.390625-83.15625-80.515625-84.445313-212.394531-2.808594-294.449219 51.554687-51.820312 123.703125-70.59375 190.183594-56.328125 5.566406 1.195313 8.964843 6.855469 7.480469 12.351563l-51.351563 190.105468 191.941406-51.847656c4.503907-1.214844 9.09375 1.585938 10.113281 6.136719zm49.664063-70.832031c-9.660156-30.769532-26.675781-59.726563-51.0625-84.113282-24.382813-24.382812-53.34375-41.402344-84.113281-51.058594-4.539063-1.425781-9.355469 1.199219-10.59375 5.789063l-49.4375 183.011719c-1.050782 3.890625 2.511718 7.453125 6.402344 6.402344l183.011718-49.4375c4.59375-1.238282 7.214844-6.054688 5.792969-10.59375zm0 0" fill="#fdbf43"/><path d="m263.554688 270.203125-4.554688-16.996094 44.894531-168.855469c2.445313-9.1875-3.261719-18.558593-12.546875-20.605468l-.171875-.039063-49.171875 184.945313-135.304687-135.304688c-2.152344 1.976563-4.277344 3.996094-6.363281 6.082032-2.085938 2.082031-4.101563 4.210937-6.078126 6.359374l135.304688 135.308594-165.300781 45.121094c-14.832031-42.605469-16.296875-88.191406-4.1875-130.023438-21.585938 44.996094-25.945313 96.183594-13.089844 143.679688.003906.023438.007813.046875.011719.066406.015625.054688.03125.113282.046875.171875.007812.023438.015625.042969.023437.066407 9.140625 33.585937 26.890625 65.316406 53.269532 91.691406 26.339843 26.339844 58.015624 44.078125 91.546874 53.234375.023438.003906.046876.015625.074219.023437.054688.011719.113281.027344.167969.042969.023438.007813.050781.011719.074219.015625 47.535156 12.898438 98.773437 8.550781 143.8125-13.050781-41.875 12.121093-87.503907 10.640625-130.144531-4.230469l45.246093-165.261719 135.304688 135.308594c2.148437-1.980469 4.277343-3.996094 6.363281-6.082031 2.082031-2.085938 4.101562-4.210938 6.078125-6.359375zm-74.15625 171.21875c-25.386719-11.160156-49.34375-27.261719-70.347657-48.265625-21.039062-21.039062-37.152343-45.035156-48.316406-70.46875l163.382813-44.59375zm113.378906-238.394531 49.4375-183.011719c1.238281-4.589844 6.054687-7.214844 10.59375-5.789063 4.492187 1.410157 8.9375 2.996094 13.34375 4.71875l-50.230469 185.964844-16.742187 4.523438c-3.890626 1.046875-7.453126-2.515625-6.402344-6.40625zm0 0" fill="#fda800"/><path d="m413.578125 245.488281c-3.667969 5.84375-5.789063 12.753907-5.789063 20.160157 0 5.929687 1.359376 11.542968 3.78125 16.542968 1.402344 2.894532.96875 6.277344-1.109374 8.726563-3.597657 4.234375-6.316407 9.328125-7.800782 15.070312-1.351562 5.234375-1.542968 10.492188-.738281 15.507813.460937 2.867187-.644531 5.722656-2.917969 7.53125-3.972656 3.167968-7.371094 7.183594-9.898437 11.960937-3.460938 6.550781-4.816407 13.652344-4.304688 20.53125.277344 3.722657-2.242187 7.140625-5.886719 7.972657-6.722656 1.539062-13.109374 4.925781-18.347656 10.164062-4.195312 4.195312-7.203125 9.125-9.027344 14.371094-1.054687 3.039062-3.75 5.125-6.949218 5.386718-5.539063.453126-11.066406 2.132813-16.175782 5.140626-4.652343 2.746093-8.507812 6.328124-11.484374 10.441406-1.703126 2.355468-4.503907 3.59375-7.394532 3.265625-5.046875-.570313-10.289062-.136719-15.453125 1.457031-7.078125 2.183594-13.058593 6.25-17.5625 11.472656-2.4375 2.832032-6.636719 3.464844-9.800781 1.480469-5.84375-3.667969-12.753906-5.789063-20.160156-5.789063-5.929688 0-11.542969 1.359376-16.542969 3.777344-2.894531 1.402344-6.277344.972656-8.726563-1.105468-4.234374-3.597657-9.328124-6.316407-15.070312-7.800782-5.234375-1.351562-10.492188-1.542968-15.507812-.738281-2.867188.460937-5.722657-.644531-7.53125-2.917969-3.167969-3.972656-7.183594-7.375-11.960938-9.898437-6.550781-3.460938-13.652344-4.816407-20.53125-4.304688-3.722656.277344-7.140625-2.246093-7.972656-5.886719-1.539063-6.726562-4.925782-13.109374-10.164063-18.347656-4.195312-4.195312-9.121093-7.203125-14.371093-9.027344-3.035157-1.054687-5.125-3.75-5.386719-6.953124-.453125-5.539063-2.132813-11.0625-5.140625-16.171876-2.746094-4.65625-6.328125-8.507812-10.441406-11.488281-2.355469-1.703125-3.59375-4.5-3.265626-7.390625.574219-5.046875.136719-10.289062-1.457031-15.453125-2.183593-7.082031-6.246093-13.058593-11.472656-17.5625-2.832031-2.4375-3.460937-6.636719-1.476563-9.800781 3.664063-5.84375 5.785157-12.753906 5.785157-20.164062 0-5.929688-1.355469-11.542969-3.777344-16.542969-1.402344-2.890625-.972656-6.273438 1.105469-8.722657 3.597656-4.238281 6.316406-9.332031 7.800781-15.074218 1.351563-5.230469 1.542969-10.492188.738281-15.503906-.460937-2.871094.644532-5.726563 2.917969-7.535157 3.972656-3.164062 7.375-7.179687 9.898437-11.960937 3.460938-6.546875 4.816407-13.648438 4.304688-20.527344-.277344-3.726562 2.246094-7.140625 5.886719-7.976562 6.722656-1.539063 13.109375-4.925782 18.347656-10.164063 4.195313-4.191406 7.203125-9.121094 9.027344-14.371094 1.054687-3.035156 3.75-5.121093 6.953125-5.382812 5.539062-.453125 11.0625-2.132813 16.171875-5.144531 4.65625-2.742188 8.507812-6.328126 11.488281-10.441407 1.703125-2.355469 4.5-3.589843 7.390625-3.265625 5.046875.574219 10.289063.136719 15.453125-1.453125 7.082031-2.183593 13.058594-6.25 17.5625-11.476562 2.4375-2.828125 6.636719-3.460938 9.800781-1.476563 5.84375 3.667969 12.753907 5.789063 20.164063 5.789063 5.929687 0 11.539062-1.359375 16.542968-3.78125 2.890626-1.398438 6.273438-.96875 8.722657 1.109375 4.238281 3.597656 9.328125 6.316406 15.070312 7.800781.507813.128906 1.015625.238281 1.519531.351563l-42.148437 156.046874 156.5625-42.292968c2.292969 4.691406 5.46875 8.757812 9.269531 12.035156 2.832032 2.4375 3.464844 6.636719 1.480469 9.800781zm-104.398437-36.058593 147.792968-39.921876c-.863281-1.757812-1.609375-3.597656-2.203125-5.523437-1.59375-5.167969-2.027343-10.410156-1.457031-15.457031.328125-2.886719-.90625-5.6875-3.261719-7.390625-4.117187-2.980469-7.699219-6.832031-10.445312-11.488281-3.007813-5.109376-4.6875-10.632813-5.140625-16.171876-.261719-3.183593-2.367188-5.90625-5.382813-6.953124-5.25-1.824219-10.179687-4.832032-14.371093-9.027344-5.238282-5.234375-8.625-11.625-10.167969-18.347656-.839844-3.671876-4.214844-6.164063-7.972657-5.882813-6.882812.507813-13.980468-.84375-20.53125-4.304687-4.734374-2.503907-8.722656-5.867188-11.875-9.796876-1.8125-2.257812-4.632812-3.511718-7.488281-3.042968-4.570312.75-9.34375.660156-14.117187-.367188l-39.78125 147.273438c-1.050782 3.890625 2.511718 7.453125 6.402344 6.402344zm0 0" fill="#fff2b4"/><path d="m269.785156 276.4375 97.738282 97.738281c-2.46875 1.523438-4.8125 3.339844-6.957032 5.480469-2.140625 2.144531-3.96875 4.480469-5.496094 6.949219l-95.4375-95.441407c-3.800781-3.796874-10.285156-2.078124-11.703124 3.101563l-35.503907 129.675781c-1.96875-.890625-4.042969-1.628906-6.207031-2.1875-3.726562-.964844-7.460938-1.328125-11.113281-1.171875l35.769531-130.660156c1.433594-5.226563-3.363281-10.027344-8.59375-8.601563l-128.933594 35.195313c-.238281-1.117187-.515625-2.230469-.859375-3.339844-1.484375-4.820312-3.855469-9.113281-6.859375-12.792969l132.300782-36.113281c5.183593-1.414062 6.90625-7.902343 3.105468-11.703125l-95.445312-95.441406c2.472656-1.523438 4.816406-3.339844 6.960937-5.484375 2.140625-2.140625 3.96875-4.476563 5.492188-6.949219l95.367187 95.371094c3.816406 3.8125 10.332032 2.058594 11.71875-3.152344l34.570313-130.03125c2.265625 1.101563 4.664062 2.011719 7.199219 2.667969 3.339843.863281 6.6875 1.25 9.976562 1.207031l-35.617188 133.96875c-1.480468 5.558594-1.472656 11.410156.015626 16.96875 1.492187 5.578125 4.429687 10.664063 8.511718 14.746094zm39.394532-67.007812 16.371093-4.421876 39.207031-145.140624c-.199218-.234376-.402343-.464844-.59375-.703126-1.8125-2.257812-4.632812-3.511718-7.488281-3.042968-4.570312.75-9.34375.660156-14.117187-.367188l-39.78125 147.273438c-1.050782 3.890625 2.511718 7.453125 6.402344 6.402344zm0 0" fill="#ffdf8e"/><path d="m244.6875 181.433594c5.167969 5.167968 5.167969 13.546875 0 18.714844-5.167969 5.167968-13.546875 5.167968-18.714844 0-5.167968-5.167969-5.167968-13.546876 0-18.714844 5.167969-5.167969 13.546875-5.167969 18.714844 0zm-74.859375-37.429688c-5.167969 5.167969-5.167969 13.546875 0 18.714844s13.546875 5.167969 18.714844 0 5.167969-13.546875 0-18.714844c-5.167969-5.167968-13.546875-5.167968-18.714844 0zm65.5 177.792969c5.167969-5.167969 5.167969-13.550781 0-18.71875s-13.546875-5.167969-18.714844 0-5.167969 13.550781 0 18.71875 13.546875 5.167969 18.714844 0zm-74.859375-56.148437c-5.167969 5.167968-5.167969 13.546874 0 18.714843s13.546875 5.167969 18.714844 0c5.167968-5.167969 5.167968-13.546875 0-18.714843-5.167969-5.167969-13.546875-5.167969-18.714844 0zm-37.429688-56.144532c-5.167968-5.167968-13.546874-5.167968-18.714843 0-5.167969 5.167969-5.167969 13.546875 0 18.714844s13.546875 5.167969 18.714843 0c5.167969-5.167969 5.167969-13.546875 0-18.714844zm102.933594 159.078125c-5.167968 5.167969-5.167968 13.546875 0 18.714844 5.167969 5.167969 13.546875 5.167969 18.714844 0s5.167969-13.546875 0-18.714844-13.546875-5.167969-18.714844 0zm-102.933594-65.503906c-5.167968 5.167969-5.167968 13.550781 0 18.71875 5.167969 5.167969 13.546876 5.167969 18.714844 0 5.167969-5.167969 5.167969-13.550781 0-18.71875-5.167968-5.167969-13.546875-5.167969-18.714844 0zm196.507813-28.070313c-5.167969-5.167968-13.546875-5.167968-18.714844 0-5.167969 5.167969-5.167969 13.546876 0 18.714844 5.167969 5.167969 13.546875 5.167969 18.714844 0 5.167969-5.167968 5.167969-13.546875 0-18.714844zm0 93.574219c-5.167969 5.167969-5.167969 13.546875 0 18.714844s13.546875 5.167969 18.714844 0 5.167969-13.546875 0-18.714844-13.546875-5.167969-18.714844 0zm27.570313-214.722656c-5.167969 5.167969-5.167969 13.546875 0 18.714844 5.167968 5.167969 13.546874 5.167969 18.71875 0 5.167968-5.167969 5.167968-13.546875 0-18.714844-5.171876-5.167969-13.550782-5.167969-18.71875 0zm108.089843-22.914063c-5.167969-5.167968-13.546875-5.167968-18.714843 0-5.167969 5.167969-5.167969 13.546876 0 18.714844 5.167968 5.167969 13.546874 5.167969 18.714843 0 5.167969-5.167968 5.167969-13.546875 0-18.714844zm0 0" fill="#73d37a"/><path d="m141.753906 228.21875c-10.335937-10.335938-10.335937-27.09375 0-37.429688 10.335938-10.335937 27.09375-10.335937 37.429688 0 10.335937 10.335938 10.335937 27.09375 0 37.429688-10.335938 10.335938-27.09375 10.335938-37.429688 0zm9.359375 102.933594c-10.335937 10.335937-10.335937 27.09375 0 37.429687 10.335938 10.335938 27.09375 10.335938 37.429688 0 10.335937-10.335937 10.335937-27.09375 0-37.429687-10.335938-10.335938-27.09375-10.335938-37.429688 0zm-74.859375-74.859375c-10.339844 10.335937-10.339844 27.09375 0 37.429687 10.335938 10.335938 27.09375 10.335938 37.429688 0 10.335937-10.335937 10.335937-27.09375 0-37.429687-10.335938-10.335938-27.09375-10.335938-37.429688 0zm121.644532-159.078125c-10.335938 10.335937-10.335938 27.09375 0 37.429687 10.335937 10.335938 27.09375 10.335938 37.429687 0 10.335937-10.335937 10.335937-27.09375 0-37.429687-10.335937-10.335938-27.09375-10.335938-37.429687 0zm140.363281 177.792968c-10.335938 10.335938-10.335938 27.09375 0 37.429688 10.335937 10.335938 27.09375 10.335938 37.429687 0 10.335938-10.335938 10.335938-27.09375 0-37.429688-10.335937-10.335937-27.09375-10.335937-37.429687 0zm55.644531-186.648437c-10.335938-10.335937-27.09375-10.335937-37.429688 0-10.335937 10.335937-10.335937 27.09375 0 37.429687 10.335938 10.335938 27.09375 10.335938 37.429688 0 10.335938-10.335937 10.335938-27.09375 0-37.429687zm-139.863281 308.296875c-10.335938 10.335938-10.335938 27.09375 0 37.429688 10.335937 10.335937 27.09375 10.335937 37.429687 0 10.335938-10.335938 10.335938-27.09375 0-37.429688-10.335937-10.335938-27.09375-10.335938-37.429687 0zm9.359375-84.21875c-10.335938 10.335938-10.335938 27.09375 0 37.429688 10.335937 10.335937 27.09375 10.335937 37.429687 0 10.335938-10.335938 10.335938-27.09375 0-37.429688-10.335937-10.335938-27.09375-10.335938-37.429687 0zm0 0" fill="#e84444"/></svg>